<svg id="Capa_1" enable-background="new 0 0 511.999 511.999" height="512" viewBox="0 0 511.999 511.999" width="512" xmlns="http://www.w3.org/2000/svg"><g><g><path d="m7.562 511.999h395.73c16.104 0 29.159-13.055 29.159-29.159 0-16.104-13.055-29.159-29.159-29.159h-28.949c-12.405 0-22.461-10.056-22.461-22.461 0-12.405-10.056-22.461-22.461-22.461h-251.004z" fill="#a6e7f0"/><path d="m432.445 482.841c0 16.103-13.053 29.156-29.156 29.156h-395.727l15.832-23.066h355.032c16.103 0 29.156-13.052 29.156-29.156 0-2.005-.197-3.961-.59-5.856 6.569.837 12.462 3.851 16.915 8.304 5.278 5.277 8.538 12.572 8.538 20.618z" fill="#6bd9e7"/></g><g><path d="m314.717 34.499h164.354v161.213h-164.354z" fill="#8379c1" transform="matrix(.707 .707 -.707 .707 197.639 -246.933)"/><path d="m437.441 85.333h20.573v161.213h-20.573z" fill="#6e61b6" transform="matrix(.707 .707 -.707 .707 248.473 -267.989)"/><path d="m.424 497.772 69.3-248.719c3.074-11.034 13.094-18.661 24.548-18.722 28.271-.149 83.831-7.399 137.443-54.53l52.241 52.241 52.241 52.241c-47.131 53.613-54.381 109.173-54.53 137.444-.061 11.454-7.688 21.473-18.722 24.548l-248.719 69.3c-8.405 2.342-16.144-5.397-13.802-13.803z" fill="#7ca1b1"/><path d="m281.667 417.738c.152-28.284 7.399-83.841 54.522-137.454l-52.237-52.237-280.654 280.654c2.689 2.689 6.717 4.041 10.935 2.879l248.709-69.308c11.035-3.081 18.674-13.094 18.725-24.534z" fill="#537983"/><path d="m336.176 280.279c-47.115 53.616-54.359 109.172-54.514 137.467-.052 11.433-7.688 21.442-18.718 24.528l-248.713 69.301c-4.21 1.166-8.245-.186-10.928-2.879l13.177-13.177 230.243-67.124c11.33-3.302 19.059-13.714 18.976-25.477-.196-28.8 6.439-85.13 52.822-140.294z" fill="#426970"/><path d="m406.809 239.016-133.826-133.826c-5.738-5.738-15.04-5.738-20.777 0l-35.162 35.162c-5.738 5.738-5.738 15.04 0 20.777l133.826 133.826c5.738 5.738 15.04 5.738 20.777 0l35.162-35.162c5.738-5.737 5.738-15.04 0-20.777z" fill="#2b3838"/><path d="m406.798 259.797-35.156 35.156c-5.737 5.727-15.024 5.737-20.772 0l-13.579-13.58c5.758 5.562 14.921 5.49 20.586-.175l35.166-35.166c5.675-5.675 5.747-14.838.186-20.596l13.58 13.58c5.747 5.736 5.736 15.033-.011 20.781z" fill="#212d2d"/><circle cx="155.925" cy="356.073" fill="#deecf1" r="55.033"/><path d="m194.85 394.993c-21.515 21.484-56.351 21.484-77.845 0-5.356-5.355-9.38-11.557-12.073-18.182 21.546 20.534 55.68 20.214 76.865-.949 16.128-16.128 20.152-39.768 12.073-59.642.33.309.66.629.98.949 21.484 21.484 21.484 56.33 0 77.824z" fill="#cbe5e8"/></g></g></svg>